<mxfile host="Electron" modified="2024-02-22T16:14:57.060Z" agent="Mozilla/5.0 (Macintosh; Intel Mac OS X 10_15_7) AppleWebKit/537.36 (KHTML, like Gecko) draw.io/21.6.8 Chrome/114.0.5735.289 Electron/25.5.0 Safari/537.36" etag="vx0ZFzobXeVwYjZ--_BT" version="21.6.8" type="device">
  <diagram name="Page-1" id="A-hLk8SM0PuvWb61PS4-">
    <mxGraphModel dx="1194" dy="824" grid="1" gridSize="10" guides="1" tooltips="1" connect="1" arrows="1" fold="1" page="1" pageScale="1" pageWidth="850" pageHeight="1100" math="1" shadow="0">
      <root>
        <mxCell id="0" />
        <mxCell id="1" parent="0" />
        <mxCell id="iiqnIssVbKjt-943VH55-1" value="" style="rounded=1;whiteSpace=wrap;html=1;" parent="1" vertex="1">
          <mxGeometry x="160" y="200" width="400" height="160" as="geometry" />
        </mxCell>
        <mxCell id="iiqnIssVbKjt-943VH55-17" value="" style="edgeStyle=orthogonalEdgeStyle;rounded=0;orthogonalLoop=1;jettySize=auto;html=1;" parent="1" source="iiqnIssVbKjt-943VH55-2" target="iiqnIssVbKjt-943VH55-16" edge="1">
          <mxGeometry relative="1" as="geometry" />
        </mxCell>
        <mxCell id="iiqnIssVbKjt-943VH55-2" value="DQN" style="shape=process;whiteSpace=wrap;html=1;backgroundOutline=1;" parent="1" vertex="1">
          <mxGeometry x="220" y="250" width="100" height="60" as="geometry" />
        </mxCell>
        <mxCell id="iiqnIssVbKjt-943VH55-3" value="" style="rounded=1;whiteSpace=wrap;html=1;" parent="1" vertex="1">
          <mxGeometry x="240" y="440" width="240" height="160" as="geometry" />
        </mxCell>
        <mxCell id="iiqnIssVbKjt-943VH55-5" value="&lt;b&gt;&lt;font style=&quot;font-size: 14px;&quot;&gt;agent&lt;/font&gt;&lt;/b&gt;" style="text;html=1;strokeColor=none;fillColor=none;align=center;verticalAlign=middle;whiteSpace=wrap;rounded=0;" parent="1" vertex="1">
          <mxGeometry x="490" y="200" width="60" height="30" as="geometry" />
        </mxCell>
        <mxCell id="iiqnIssVbKjt-943VH55-6" value="&lt;b&gt;&lt;font style=&quot;font-size: 14px;&quot;&gt;env&lt;/font&gt;&lt;/b&gt;" style="text;html=1;strokeColor=none;fillColor=none;align=center;verticalAlign=middle;whiteSpace=wrap;rounded=0;" parent="1" vertex="1">
          <mxGeometry x="440" y="440" width="40" height="30" as="geometry" />
        </mxCell>
        <mxCell id="iiqnIssVbKjt-943VH55-16" value="Selecter" style="strokeWidth=2;html=1;shape=mxgraph.flowchart.delay;whiteSpace=wrap;" parent="1" vertex="1">
          <mxGeometry x="400" y="250" width="110" height="60" as="geometry" />
        </mxCell>
        <mxCell id="iiqnIssVbKjt-943VH55-20" value="" style="endArrow=classic;html=1;rounded=0;exitX=1;exitY=0.5;exitDx=0;exitDy=0;exitPerimeter=0;entryX=1;entryY=0.5;entryDx=0;entryDy=0;" parent="1" source="iiqnIssVbKjt-943VH55-16" target="iiqnIssVbKjt-943VH55-1" edge="1">
          <mxGeometry width="50" height="50" relative="1" as="geometry">
            <mxPoint x="400" y="430" as="sourcePoint" />
            <mxPoint x="450" y="380" as="targetPoint" />
          </mxGeometry>
        </mxCell>
        <mxCell id="iiqnIssVbKjt-943VH55-21" value="" style="endArrow=classic;html=1;rounded=0;exitX=0;exitY=0.5;exitDx=0;exitDy=0;entryX=0;entryY=0.5;entryDx=0;entryDy=0;" parent="1" source="iiqnIssVbKjt-943VH55-1" target="iiqnIssVbKjt-943VH55-2" edge="1">
          <mxGeometry width="50" height="50" relative="1" as="geometry">
            <mxPoint x="400" y="430" as="sourcePoint" />
            <mxPoint x="450" y="380" as="targetPoint" />
          </mxGeometry>
        </mxCell>
        <mxCell id="iiqnIssVbKjt-943VH55-22" value="" style="endArrow=classic;html=1;rounded=0;exitX=1;exitY=0.5;exitDx=0;exitDy=0;entryX=1;entryY=0.5;entryDx=0;entryDy=0;shape=flexArrow;fillColor=#4D4D4D;fillStyle=solid;" parent="1" source="iiqnIssVbKjt-943VH55-1" target="iiqnIssVbKjt-943VH55-3" edge="1">
          <mxGeometry width="50" height="50" relative="1" as="geometry">
            <mxPoint x="500" y="430" as="sourcePoint" />
            <mxPoint x="640" y="570" as="targetPoint" />
            <Array as="points">
              <mxPoint x="640" y="280" />
              <mxPoint x="640" y="520" />
            </Array>
          </mxGeometry>
        </mxCell>
        <mxCell id="iiqnIssVbKjt-943VH55-25" value="`v_{it}` = `Q(S_t, a)`.index(&lt;br&gt;`\max(Q(S_t, a))`)" style="text;html=1;strokeColor=none;fillColor=none;align=center;verticalAlign=middle;whiteSpace=wrap;rounded=0;" parent="1" vertex="1">
          <mxGeometry x="510" y="380" width="130" height="30" as="geometry" />
        </mxCell>
        <mxCell id="iiqnIssVbKjt-943VH55-27" value="" style="shape=flexArrow;endArrow=classic;html=1;rounded=0;exitX=0;exitY=0.5;exitDx=0;exitDy=0;strokeColor=#000000;fillColor=#4D4D4D;" parent="1" source="iiqnIssVbKjt-943VH55-3" edge="1">
          <mxGeometry width="50" height="50" relative="1" as="geometry">
            <mxPoint x="500" y="430" as="sourcePoint" />
            <mxPoint x="160" y="520" as="targetPoint" />
          </mxGeometry>
        </mxCell>
        <mxCell id="iiqnIssVbKjt-943VH55-29" value="" style="endArrow=none;dashed=1;html=1;rounded=0;strokeWidth=4;" parent="1" edge="1">
          <mxGeometry width="50" height="50" relative="1" as="geometry">
            <mxPoint x="158.25" y="560" as="sourcePoint" />
            <mxPoint x="158.25" y="480" as="targetPoint" />
          </mxGeometry>
        </mxCell>
        <mxCell id="iiqnIssVbKjt-943VH55-30" value="`R_{t+1}`" style="text;html=1;strokeColor=none;fillColor=none;align=center;verticalAlign=middle;whiteSpace=wrap;rounded=0;" parent="1" vertex="1">
          <mxGeometry x="190" y="480" width="50" height="30" as="geometry" />
        </mxCell>
        <mxCell id="iiqnIssVbKjt-943VH55-31" value="`S_{t+1}`" style="text;html=1;strokeColor=none;fillColor=none;align=center;verticalAlign=middle;whiteSpace=wrap;rounded=0;" parent="1" vertex="1">
          <mxGeometry x="190" y="530" width="50" height="30" as="geometry" />
        </mxCell>
        <mxCell id="iiqnIssVbKjt-943VH55-32" value="" style="shape=flexArrow;endArrow=classic;html=1;rounded=0;strokeColor=#000000;fillColor=#4D4D4D;entryX=0;entryY=0.5;entryDx=0;entryDy=0;" parent="1" target="iiqnIssVbKjt-943VH55-1" edge="1">
          <mxGeometry width="50" height="50" relative="1" as="geometry">
            <mxPoint x="160" y="520" as="sourcePoint" />
            <mxPoint x="60" y="519.5" as="targetPoint" />
            <Array as="points">
              <mxPoint x="80" y="520" />
              <mxPoint x="80" y="280" />
            </Array>
          </mxGeometry>
        </mxCell>
        <mxCell id="iiqnIssVbKjt-943VH55-33" value="`S_{t+1}=S_{t} \quad &amp;amp;\quad (1_0,1_1,\ldots, 0_{it}, \ldots, 1_{|V|})`" style="text;html=1;strokeColor=none;fillColor=none;align=center;verticalAlign=middle;whiteSpace=wrap;rounded=0;" parent="1" vertex="1">
          <mxGeometry x="246.25" y="505" width="227.5" height="30" as="geometry" />
        </mxCell>
        <mxCell id="iiqnIssVbKjt-943VH55-34" value="`R_{t}=\text{ANC}(S_{t-1})- \text{ANC}(S_{t})`" style="text;html=1;strokeColor=none;fillColor=none;align=center;verticalAlign=middle;whiteSpace=wrap;rounded=0;" parent="1" vertex="1">
          <mxGeometry x="82.5" y="370" width="185" height="30" as="geometry" />
        </mxCell>
        <mxCell id="iiqnIssVbKjt-943VH55-35" value="`Q(S_t, a)`" style="text;html=1;strokeColor=none;fillColor=none;align=center;verticalAlign=middle;whiteSpace=wrap;rounded=0;" parent="1" vertex="1">
          <mxGeometry x="330" y="250" width="60" height="30" as="geometry" />
        </mxCell>
        <mxCell id="iiqnIssVbKjt-943VH55-39" value="`S_{t}=\left(s_{0t}, s_{1t}, \ldots, s_{|V|t}\right)`" style="text;html=1;strokeColor=none;fillColor=none;align=center;verticalAlign=middle;whiteSpace=wrap;rounded=0;" parent="1" vertex="1">
          <mxGeometry x="90" y="400" width="137.5" height="30" as="geometry" />
        </mxCell>
      </root>
    </mxGraphModel>
  </diagram>
</mxfile>
